<?xml version="1.0" encoding="UTF-8"?><svg id="Layer_2" xmlns="http://www.w3.org/2000/svg" viewBox="0 0 464.07 37.27"><defs><style>.cls-1{fill:#ffc82d;}.cls-2{fill:#512d6d;}</style></defs><g id="Layer_1-2"><g><path class="cls-2" d="m21.73,0c3.63,0,7.09.51,11.17,2.13l-.85,9.84c-2.45-1.25-5.68-2.11-9.44-2.11-5.7,0-10.8,2.29-10.8,8.61s5.62,8.82,11.2,8.82c2.8,0,5.76-.83,9.04-2.85l1.84,9.73c-4.83,2.77-8.93,3.09-13.49,3.09C9.14,37.27,0,30.07,0,18.63,0,6.13,9.89.11,21.73,0Z"/><path class="cls-2" d="m55.42,0c11.44,0,19.35,7.65,19.35,18.61s-7.92,18.66-19.35,18.66-19.46-7.68-19.46-18.69S43.91,0,55.42,0Zm.03,27.11c4.58,0,7.62-3.44,7.62-8.5s-3.04-8.34-7.62-8.34-7.81,3.39-7.81,8.34,3.12,8.5,7.81,8.5Z"/><path class="cls-2" d="m77.98,36.73V.53h16.9c11.86,0,19.03,5.89,19.03,17.94s-6.93,18.26-19.03,18.26h-16.9Zm11.33-26.84v17.57h5.01c4.93,0,7.89-3.49,7.89-8.98,0-5.92-3.28-8.58-7.89-8.58h-5.01Z"/><path class="cls-2" d="m145.71,36.73h-28.55V.53h28.47v9.12h-16.9v4.27h15.33v9.04h-15.33v4.75h16.98v9.04Z"/><path class="cls-2" d="m160.35,36.73h-11.44V.53h18.9c9.68,0,14.26,5.94,14.26,13.09,0,5.54-3.25,9.73-6.58,11.01l8.8,12.13h-13.65l-6.72-9.65h-3.57v9.62Zm0-26.66v7.78h5.06c3.01,0,4.96-1.07,4.96-3.92s-1.73-3.87-4.96-3.87h-5.06Z"/><path class="cls-1" d="m207.96,0c3.63,0,7.09.51,11.17,2.13l-.85,9.84c-2.45-1.25-5.68-2.11-9.44-2.11-5.7,0-10.8,2.29-10.8,8.61s5.62,8.82,11.2,8.82c2.8,0,5.76-.83,9.04-2.85l1.84,9.73c-4.83,2.77-8.93,3.09-13.49,3.09-11.25,0-20.39-7.2-20.39-18.63,0-12.5,9.89-18.53,21.73-18.63Z"/><path class="cls-1" d="m241.66,0c11.44,0,19.35,7.65,19.35,18.61s-7.92,18.66-19.35,18.66-19.46-7.68-19.46-18.69S230.14,0,241.66,0Zm.03,27.11c4.58,0,7.62-3.44,7.62-8.5s-3.04-8.34-7.62-8.34-7.81,3.39-7.81,8.34,3.12,8.5,7.81,8.5Z"/><path class="cls-1" d="m273.38.53l12.02,13.65,12-13.65h9.2v36.2h-11.17v-18.9l-9.38,10.48h-1.17l-9.54-10.5v18.93h-11.12V.53h9.17Z"/><path class="cls-1" d="m319.82.53l12.02,13.65,12-13.65h9.2v36.2h-11.17v-18.9l-9.38,10.48h-1.17l-9.54-10.5v18.93h-11.12V.53h9.17Z"/><path class="cls-1" d="m356.96.53h11.09v21.35c0,3.73,3.17,5.62,6.24,5.62,3.28,0,6.29-2.05,6.29-5.62V.53h11.09v22.5c0,9.76-8.9,14.24-17.38,14.24-9.14,0-17.33-4.85-17.33-14.24V.53Z"/><path class="cls-1" d="m406.7,36.73h-11.12V.53h9.25l15.49,17.97V.53h11.14v36.2h-8.64l-16.13-17.73v17.73Z"/><path class="cls-1" d="m464.07,36.73h-28.55V.53h28.47v9.12h-16.9v4.27h15.33v9.04h-15.33v4.75h16.98v9.04Z"/></g></g></svg>